<svg id="Calque_1" data-name="Calque 1" xmlns="http://www.w3.org/2000/svg" viewBox="0 0 1740.21 1740.21"><defs><style>.cls-1{font-size:188px;fill:#1d1d1b;font-family:Avara-BoldItalic, Avara;font-weight:700;font-style:italic;}</style></defs><text class="cls-1" transform="matrix(0.73, -0.68, 0.68, 0.73, 343.35, 407.87)">Y</text><text class="cls-1" transform="translate(427.12 328.4) rotate(-34.39)">o</text><text class="cls-1" transform="translate(520.78 262.4) rotate(-24.07)">u</text><text class="cls-1" transform="matrix(0.96, -0.28, 0.28, 0.96, 647.86, 208.42)"> </text><text class="cls-1" transform="translate(701.64 191.37) rotate(-9.55)">c</text><text class="cls-1" transform="matrix(1, -0.02, 0.02, 1, 799.79, 174.04)">a</text><text class="cls-1" transform="matrix(0.98, 0.18, -0.18, 0.98, 929.29, 171.74)">n</text><text class="cls-1" transform="translate(1064.48 199.71) rotate(18.63)"> </text><text class="cls-1" transform="translate(1118.59 217.2) rotate(24.26)">f</text><text class="cls-1" transform="matrix(0.85, 0.53, -0.53, 0.85, 1190.52, 247.85)">o</text><text class="cls-1" transform="translate(1287.8 310.61) rotate(39.86)">l</text><text class="cls-1" transform="translate(1342.98 356.45) rotate(45.72)">l</text><text class="cls-1" transform="translate(1393.72 405.91) rotate(53.33)">o</text><text class="cls-1" transform="translate(1464.24 495.89) rotate(64.52)">w</text><text class="cls-1" transform="translate(1529.77 641.91) rotate(73.41)"> </text><text class="cls-1" transform="translate(1551.58 692.76) rotate(83.46)">m</text><text class="cls-1" transform="translate(1569.16 880.57) rotate(95.11)">e</text><text class="cls-1" transform="translate(1559.09 981.44) rotate(101.59)"> </text><text class="cls-1" transform="matrix(-0.32, 0.95, -0.95, -0.32, 1549.9, 1036.84)">h</text><text class="cls-1" transform="translate(1512.79 1145.85) rotate(117.59)">e</text><text class="cls-1" transform="matrix(-0.58, 0.81, -0.81, -0.58, 1466.22, 1235.09)">r</text><text class="cls-1" transform="matrix(-0.69, 0.73, -0.73, -0.69, 1412.54, 1311.24)">e</text><text class="cls-1" transform="matrix(-0.76, 0.64, -0.64, -0.76, 1342.05, 1384.13)"> </text><text class="cls-1" transform="matrix(-0.83, 0.56, -0.56, -0.83, 1299.26, 1421.42)">&gt;</text><text class="cls-1" transform="translate(1227.27 1469.72) rotate(151.64)"> </text><text class="cls-1" transform="translate(1179.44 1498.74) rotate(159.33)">a</text><text class="cls-1" transform="translate(1058.86 1545.23) rotate(170.3)">n</text><text class="cls-1" transform="matrix(-1, -0.02, 0.02, -1, 924.09, 1568.45)">d</text><text class="cls-1" transform="matrix(-0.99, -0.15, 0.15, -0.99, 793.39, 1563.76)"> </text><text class="cls-1" transform="translate(737.61 1557.36) rotate(-164.19)">h</text><text class="cls-1" transform="translate(626.88 1525.8) rotate(-155.3)">e</text><text class="cls-1" transform="matrix(-0.84, -0.54, 0.54, -0.84, 535.43, 1483.79)">r</text><text class="cls-1" transform="translate(456.71 1434) rotate(-139.41)">e</text><text class="cls-1" transform="translate(380.37 1367.2) rotate(-132.97)"> </text><text class="cls-1" transform="translate(341 1326.33) rotate(-127.11)">&gt;</text><text class="cls-1" transform="translate(289.16 1256.83) rotate(-121.23)"> </text><text class="cls-1" transform="translate(258.23 1209.92) rotate(-114.15)">o</text><text class="cls-1" transform="translate(211.5 1104.53) rotate(-105.55)">r</text><text class="cls-1" transform="matrix(-0.16, -0.99, 0.99, -0.16, 187.08, 1013.72)"> </text><text class="cls-1" transform="translate(175.92 958.67) rotate(-92.3)">h</text><text class="cls-1" transform="translate(171.46 843.51) rotate(-83.57)">e</text><text class="cls-1" transform="translate(182.65 743.51) rotate(-75.6)">r</text><text class="cls-1" transform="translate(205.25 653.16) rotate(-67.59)">e</text><text class="cls-1" transform="translate(244.88 559.85) rotate(-61.09)"> </text><text class="cls-1" transform="matrix(0.57, -0.82, 0.82, 0.57, 271.47, 509.74)">&gt;</text></svg>